<svg width="92" height="31" viewBox="0 0 92 31" fill="none" xmlns="http://www.w3.org/2000/svg">
<path d="M11.9795 23.6089C5.4702 23.6089 0 18.3138 0 11.8045C0 5.29603 5.4702 0 11.9795 0C15.5787 0 18.1387 1.40856 20.0723 3.24915L17.7896 5.53192C16.4114 4.23666 14.5396 3.22886 11.9693 3.22886C7.21863 3.22886 3.50617 7.05377 3.50617 11.8045C3.50617 16.5552 7.21863 20.3801 11.9693 20.3801C15.0536 20.3801 16.8021 19.1465 17.9333 18.0153C18.8582 17.0904 19.4551 15.774 19.6919 13.9537H11.9795V10.7967H22.8277C22.941 11.3724 23.0027 11.9896 23.0027 12.7404C23.0027 15.1568 22.3441 18.1489 20.2059 20.2879C18.1387 22.4574 15.4857 23.6089 11.9795 23.6089Z" fill="white"/>
<path d="M39.6404 16.0099C39.6404 20.3911 36.2263 23.609 32.0311 23.609C27.8359 23.609 24.4219 20.3801 24.4219 16.0099C24.4219 11.6092 27.8359 8.41162 32.0311 8.41162C36.2263 8.41162 39.6404 11.599 39.6404 16.0099ZM36.3092 16.0099C36.3092 13.2748 34.324 11.4037 32.0311 11.4037C29.7382 11.4037 27.7539 13.2748 27.7539 16.0099C27.7539 18.7145 29.7382 20.6169 32.0311 20.6169C34.324 20.6169 36.3092 18.7145 36.3092 16.0099Z" fill="white"/>
<path d="M56.0925 16.0099C56.0925 20.3911 52.6785 23.609 48.4833 23.609C44.2872 23.609 40.874 20.3801 40.874 16.0099C40.874 11.6092 44.2872 8.41162 48.4833 8.41162C52.6785 8.41162 56.0925 11.599 56.0925 16.0099ZM52.7605 16.0099C52.7605 13.2748 50.7762 11.4037 48.4833 11.4037C46.1895 11.4037 44.2052 13.2748 44.2052 16.0099C44.2052 18.7145 46.1895 20.6169 48.4833 20.6169C50.7762 20.6169 52.7605 18.7145 52.7605 16.0099Z" fill="white"/>
<path d="M71.6192 8.8642V22.5194C71.6192 28.1342 68.3084 30.4372 64.3904 30.4372C60.7093 30.4372 58.4882 27.9592 57.6554 25.9436L60.5655 24.7303C61.0796 25.9639 62.3545 27.435 64.3904 27.435C66.8998 27.435 68.4529 25.8818 68.4529 22.9717V21.8819H68.3396C67.5889 22.8077 66.149 23.6092 64.3397 23.6092C60.5351 23.6092 57.2234 20.2983 57.2234 16.0414C57.2234 11.7532 60.5351 8.41187 64.3397 8.41187C66.149 8.41187 67.5889 9.21338 68.3396 10.1079H68.4529V8.87434H71.6192V8.8642ZM68.6787 16.0414C68.6787 13.368 66.8897 11.404 64.617 11.404C62.314 11.404 60.5554 13.3579 60.5554 16.0414C60.5554 18.6945 62.314 20.6171 64.617 20.6171C66.8998 20.6171 68.6787 18.6843 68.6787 16.0414Z" fill="white"/>
<path d="M76.7611 0.802734V23.1469H73.419V0.802734H76.7611Z" fill="white"/>
<path d="M89.2649 18.5093L91.8563 20.2366C91.0227 21.471 89.0079 23.6092 85.522 23.6092C81.2033 23.6092 77.9745 20.2679 77.9745 16.0101C77.9745 11.486 81.2236 8.41187 85.1416 8.41187C89.0899 8.41187 91.0125 11.5477 91.65 13.2446L92 14.1078L81.8408 18.314C82.622 19.8359 83.8252 20.6171 85.522 20.6171C87.218 20.6171 88.4008 19.7843 89.2649 18.5093ZM81.2854 15.7742L88.0821 12.9563C87.7118 12.0102 86.5805 11.3423 85.265 11.3423C83.558 11.3423 81.2033 12.8438 81.2854 15.7742Z" fill="white"/>
</svg>
