<svg width="96" height="23" viewBox="0 0 96 23" fill="none" xmlns="http://www.w3.org/2000/svg">
<path d="M-3.05176e-05 1.20582H2.37613L6.63459 6.60327V1.20582H9.00574V10.3118H6.56146L2.37613 4.87925V10.3118H-3.05176e-05V1.20582Z" fill="white"/>
<path d="M17.036 7.66079C17.5228 7.16092 17.7733 6.50777 17.7733 5.71038C17.7733 4.97409 17.5228 4.35601 17.024 3.85713C16.5251 3.35726 15.895 3.10782 15.1457 3.10782C14.3854 3.10782 13.7663 3.36928 13.2674 3.86815C12.7795 4.36803 12.5301 5.00915 12.5301 5.7825C12.5301 6.55486 12.7685 7.18496 13.2564 7.68484C13.7312 8.17169 14.3613 8.42112 15.1337 8.42112C15.907 8.42112 16.5361 8.17169 17.036 7.66079ZM11.5434 9.25358C10.5927 8.32596 10.1279 7.16092 10.1279 5.74644C10.1279 4.32094 10.6168 3.14388 11.6035 2.21626C12.5662 1.3237 13.7432 0.872905 15.1577 0.872905C16.5722 0.872905 17.7733 1.33672 18.736 2.26334C19.6987 3.17894 20.1745 4.32094 20.1745 5.6643C20.1745 7.11384 19.6866 8.31494 18.7119 9.2656C17.7492 10.1812 16.5602 10.645 15.1457 10.645C13.6821 10.645 12.483 10.1812 11.5434 9.25358Z" fill="white"/>
<path d="M24.5572 5.30676C25.3776 5.30676 25.7813 4.92609 25.7813 4.16576C25.7813 3.40543 25.3896 3.02376 24.5812 3.02376H23.8409V5.30676H24.5572ZM21.4668 1.20558H25.0921C25.9967 1.20558 26.721 1.45601 27.303 1.94287C27.897 2.46578 28.2076 3.16701 28.2076 4.05857C28.2076 5.31878 27.6837 6.15124 26.6378 6.54393L29.0751 10.3115H26.2331L24.3198 7.1019H23.8409V10.3115H21.4668V1.20558Z" fill="white"/>
<path d="M31.3014 3.58022H29.374V1.20506H35.6029V3.58022H33.6745V10.312H31.3014V3.58022Z" fill="white"/>
<path d="M37.1006 1.20555H39.4747V4.42319H42.8086V1.20555H45.1837V10.3125H42.8086V6.79835H39.4747V10.3125H37.1006V1.20555Z" fill="white"/>
<path d="M50.0474 5.307C50.8668 5.307 51.2715 4.92634 51.2715 4.166C51.2715 3.40567 50.8798 3.024 50.0704 3.024H49.3311V5.307H50.0474ZM46.9569 1.20582H50.5823C51.4859 1.20582 52.2111 1.45626 52.7932 1.94311C53.3872 2.46603 53.6967 3.16726 53.6967 4.05882C53.6967 5.31902 53.1738 6.15148 52.128 6.54417L54.5653 10.3118H51.7233L49.8099 7.10215H49.3311V10.3118H46.9569V1.20582Z" fill="white"/>
<path d="M61.8143 7.66079C62.3011 7.16092 62.5505 6.50777 62.5505 5.71038C62.5505 4.97409 62.3011 4.35601 61.8012 3.85713C61.3024 3.35726 60.6723 3.10782 59.9229 3.10782C59.1636 3.10782 58.5435 3.36928 58.0447 3.86815C57.5588 4.36803 57.3084 5.00915 57.3084 5.7825C57.3084 6.55486 57.5458 7.18496 58.0336 7.68484C58.5085 8.17169 59.1396 8.42112 59.9119 8.42112C60.6853 8.42112 61.3144 8.17169 61.8143 7.66079ZM56.3226 9.25358C55.37 8.32596 54.9062 7.16092 54.9062 5.74644C54.9062 4.32094 55.395 3.14388 56.3817 2.21626C57.3444 1.3237 58.5215 0.872905 59.936 0.872905C61.3514 0.872905 62.5505 1.33672 63.5132 2.26334C64.4759 3.17894 64.9528 4.32094 64.9528 5.6643C64.9528 7.11384 64.4649 8.31494 63.4902 9.2656C62.5275 10.1812 61.3374 10.645 59.9229 10.645C58.4604 10.645 57.2613 10.1812 56.3226 9.25358Z" fill="white"/>
<path d="M69.5981 5.39039C70.5367 5.39039 71.0005 4.98568 71.0005 4.16625C71.0005 3.38187 70.5487 3.00121 69.6211 3.00121H68.8107V5.39039H69.5981ZM66.4355 1.20606H70.5016C71.3812 1.20606 72.0944 1.49056 72.6053 2.0856C73.1182 2.63256 73.3667 3.36885 73.3667 4.26142C73.3667 5.11691 73.1182 5.80612 72.6053 6.32904C72.1064 6.86397 71.4172 7.13845 70.5728 7.13845H68.8107V10.312H66.4355V1.20606Z" fill="white"/>
<path d="M11.4592 20.735C10.5797 19.8074 10.1279 18.6424 10.1279 17.2519C10.1279 15.8845 10.5797 14.7315 11.4592 13.7919C12.3738 12.8302 13.5038 12.3544 14.8602 12.3544C16.6904 12.3544 18.0568 13.1147 18.9724 14.6363L17.0711 15.6832C17.024 15.564 16.9268 15.4327 16.7846 15.2785C16.2747 14.7085 15.6195 14.423 14.8351 14.423C14.0508 14.423 13.4677 14.7315 13.0761 15.3376C12.7435 15.8485 12.5762 16.5146 12.5762 17.3471C12.5762 18.1906 12.7785 18.8447 13.1712 19.3326C13.6 19.8675 14.2301 20.129 15.0495 20.129C15.5254 20.129 15.9651 19.9747 16.3578 19.6772C16.7846 19.3556 17.024 18.9759 17.0711 18.5121H14.9794V16.6098H19.5434V17.1097C19.5434 18.6544 19.1627 19.8675 18.3894 20.747C17.581 21.6627 16.4159 22.1265 14.8822 22.1265C13.4918 22.1265 12.3518 21.6627 11.4592 20.735Z" fill="white"/>
<path d="M24.0455 16.7889C24.8649 16.7889 25.2696 16.4083 25.2696 15.6479C25.2696 14.8866 24.8779 14.5059 24.0685 14.5059H23.3292V16.7889H24.0455ZM20.9551 12.6878H24.5804C25.484 12.6878 26.2093 12.9382 26.7913 13.425C27.3863 13.948 27.6949 14.6492 27.6949 15.5408C27.6949 16.801 27.172 17.6334 26.1261 18.0261L28.5634 21.7937H25.7214L23.8081 18.5841H23.3292V21.7937H20.9551V12.6878Z" fill="white"/>
<path d="M30.5864 21.3301C29.777 20.724 29.3613 19.8916 29.3613 18.8457V12.6869H31.7385V18.3458C31.7385 19.4398 32.2854 19.9867 33.3803 19.9867C33.8662 19.9867 34.2859 19.8555 34.5724 19.594C34.8679 19.3216 35.0232 18.9409 35.0232 18.4651V12.6869H37.3984V18.5843C37.3984 19.7373 37.0047 20.6288 36.2083 21.271C35.484 21.841 34.5213 22.1265 33.3312 22.1265C32.2373 22.1265 31.3227 21.865 30.5864 21.3301Z" fill="white"/>
<path d="M44.4605 17.3942L47.4678 12.688H47.4718H49.8429V21.7949H47.4718V16.4506H47.4678L45.1006 20.1651H43.8414L41.4623 16.4506H41.4583V21.7949H39.0781V12.688H41.4583L44.4605 17.3942Z" fill="white"/>
<path d="M57.1802 17.3942L60.1865 12.688H60.1905H62.5627V21.7949H60.1905V16.4506H60.1865L57.8204 20.1651H56.5612L54.182 16.4506H54.173L54.172 21.7949H51.7978V12.688H54.177L57.1802 17.3942Z" fill="white"/>
<path d="M69.4404 18.2748L68.4777 15.4929L67.503 18.2748H69.4404ZM67.1504 12.687H69.8692L73.2451 21.7939H70.6766L70.0585 20.106H66.91L66.3029 21.7939H63.7695L67.1504 12.687Z" fill="white"/>
<path d="M74.5538 12.6875H76.932L81.1203 18.0849V12.6875H83.4935V21.7944H81.1153L76.93 16.3609V21.7944H74.5538V12.6875Z" fill="white"/>
<path d="M74.5547 1.2054V3.58257H93.6241V21.7935H96.0002V1.2054H74.5547Z" fill="white"/>
</svg>
