<svg width="64" height="63" viewBox="0 0 64 63" fill="none" xmlns="http://www.w3.org/2000/svg">
<path d="M17.3713 23.2826C17.7637 24.2447 18.1668 25.2013 18.5484 26.1688C18.5859 26.3206 18.5859 26.4792 18.5484 26.631C17.9142 30.9844 17.2638 35.3378 16.6511 39.6912C16.6356 39.854 16.6528 40.0182 16.7018 40.1742C16.7507 40.3301 16.8303 40.4747 16.936 40.5995C18.3979 42.0936 19.8974 43.5502 21.3915 45.0121C21.4624 45.1026 21.553 45.1757 21.6563 45.2261C21.7597 45.2764 21.8731 45.3026 21.9881 45.3026C22.103 45.3026 22.2165 45.2764 22.3199 45.2261C22.4232 45.1757 22.5138 45.1026 22.5847 45.0121C24.0734 43.5448 25.5783 42.0882 27.0402 40.5995C27.1369 40.482 27.209 40.3463 27.2524 40.2005C27.2958 40.0546 27.3095 39.9016 27.2928 39.7503C26.6908 35.4507 26.0566 31.151 25.4493 26.8836C25.4069 26.5099 25.4491 26.1315 25.5729 25.7764C25.8148 25.067 26.1426 24.3952 26.406 23.6911C26.535 23.3364 26.7016 23.2826 27.0671 23.374C32.0289 24.6361 36.4154 27.5447 39.5092 31.624C38.1387 32.3603 37.6496 33.6771 37.225 35.0637C37.0589 35.402 36.782 35.6732 36.4403 35.8322C36.0671 35.9958 35.6805 36.1271 35.2848 36.2246C34.3416 36.5212 33.5467 37.1657 33.0616 38.0272C32.5764 38.8887 32.4374 39.9025 32.6727 40.8628C32.8596 41.4128 32.8798 42.0057 32.7306 42.5671C32.5814 43.1284 32.2696 43.6331 31.8343 44.0177C30.324 45.5387 30.3939 47.7799 31.7967 49.3923C32.127 49.734 32.4391 50.0928 32.7319 50.4672C33.092 51.0047 32.9898 51.1874 32.3879 51.3648C26.2066 53.2456 19.6307 53.4128 13.3619 51.8485C9.72655 51.0318 6.24361 49.644 3.04271 47.7369C0.468286 46.1246 -0.36477 44.2596 0.14044 41.2874C0.92945 36.9842 2.94506 33.0006 5.94476 29.816C8.94446 26.6313 12.8005 24.3812 17.0489 23.3364C17.1547 23.3097 17.2625 23.2917 17.3713 23.2826Z" fill="#C41E3D"/>
<path d="M11.6367 10.3138C11.6399 8.26979 12.2494 6.2727 13.388 4.57527C14.5267 2.87784 16.1434 1.55636 18.0334 0.778099C19.9234 -0.000157773 22.0018 -0.200216 24.0056 0.203245C26.0094 0.606706 27.8484 1.59557 29.2899 3.04464C30.7315 4.49371 31.7107 6.33787 32.1037 8.3437C32.4968 10.3495 32.2859 12.4269 31.4978 14.3128C30.7097 16.1988 29.3798 17.8085 27.6765 18.9383C25.9732 20.0682 23.9729 20.6673 21.929 20.6598C19.1948 20.6442 16.5778 19.5475 14.6495 17.6091C12.7211 15.6707 11.638 13.048 11.6367 10.3138Z" fill="#C41E3D"/>
<path d="M34.0916 53.0793C34.1346 52.8482 34.1884 52.3967 34.2959 51.9614C34.4431 51.4343 34.446 50.8773 34.3041 50.3488C34.1623 49.8202 33.881 49.3395 33.4897 48.957C33.0201 48.5027 32.6535 47.9528 32.4148 47.3446C32.2563 46.9117 32.2343 46.4407 32.3515 45.9949C32.4687 45.549 32.7196 45.1498 33.0705 44.8508C33.6562 44.3774 34.08 43.7334 34.2832 43.0082C34.4864 42.283 34.4589 41.5126 34.2045 40.8037C34.0794 40.4633 34.031 40.0994 34.0629 39.7381C34.0948 39.3768 34.2061 39.0271 34.3889 38.7138C34.5718 38.4006 34.8215 38.1316 35.1204 37.9261C35.4193 37.7206 35.7599 37.5838 36.1178 37.5253C36.828 37.413 37.4848 37.0801 37.9951 36.5736C38.5055 36.0672 38.8434 35.4129 38.961 34.7036C39.0251 34.331 39.1713 33.9773 39.3891 33.6682C39.6069 33.3591 39.8907 33.1023 40.2201 32.9166C40.5494 32.7308 40.9159 32.6207 41.2931 32.5942C41.6703 32.5677 42.0486 32.6255 42.4007 32.7634C43.9002 33.2471 45.088 32.844 46.1629 31.7583C47.4851 30.447 48.775 30.4416 50.0864 31.7583C50.5533 32.2855 51.1664 32.662 51.8477 32.84C52.5291 33.0179 53.2479 32.9894 53.9131 32.758C55.6275 32.2743 56.8637 33.016 57.299 34.7627C57.4211 35.4305 57.7436 36.0454 58.2237 36.5254C58.7037 37.0054 59.3185 37.3279 59.9863 37.45C60.5442 37.5281 61.0595 37.7917 61.4495 38.1982C61.8394 38.6047 62.0813 39.1306 62.1361 39.6912C62.1725 40.1397 62.1195 40.5909 61.9803 41.0187C61.778 41.6235 61.7536 42.2737 61.9098 42.892C62.066 43.5102 62.3964 44.0707 62.8617 44.5068C64.4042 46.1192 64.372 47.2318 62.808 48.8388C62.3797 49.2311 62.0704 49.736 61.9155 50.2958C61.7606 50.8556 61.7663 51.4477 61.9319 52.0044C62.0938 52.4981 62.1648 53.0171 62.1415 53.5361C62.1006 54.0625 61.8923 54.562 61.547 54.9614C61.2018 55.3608 60.7377 55.6392 60.2228 55.7558C59.852 55.8633 59.4811 55.9762 59.1479 56.1159C58.7817 56.2469 58.4506 56.4605 58.1803 56.7401C57.91 57.0197 57.7077 57.3578 57.5893 57.7283C57.4656 58.0937 57.3528 58.4592 57.2238 58.8032C57.1389 59.1233 56.9917 59.4237 56.7907 59.6869C56.5897 59.9502 56.3387 60.1713 56.0522 60.3375C55.7657 60.5037 55.4492 60.6118 55.1209 60.6556C54.7926 60.6994 54.4589 60.6782 54.1388 60.593C53.8915 60.5446 53.6551 60.4801 53.4078 60.4263C52.891 60.2848 52.3459 60.2824 51.8277 60.4192C51.3096 60.5561 50.8368 60.8274 50.4572 61.2057C50.0216 61.658 49.5035 62.0229 48.9308 62.2806C48.4601 62.4703 47.9408 62.5032 47.45 62.3745C46.9591 62.2457 46.5228 61.9621 46.2059 61.5657C45.131 60.3296 43.8465 60.1253 42.3255 60.4908C40.6486 60.9261 39.4286 60.2436 39.0094 58.5667C38.8625 57.8413 38.4994 57.1773 37.968 56.6621C37.4365 56.147 36.7615 55.8048 36.0318 55.6806C34.7204 55.4602 34.0809 54.5466 34.0916 53.0793ZM48.1246 34.9186C45.8009 34.9155 43.5283 35.6008 41.5937 36.8882C39.6592 38.1756 38.1494 40.0073 37.255 42.152C36.3607 44.2968 36.1217 46.6584 36.5685 48.9388C37.0152 51.2192 38.1275 53.3162 39.765 54.9649C41.4025 56.6137 43.4918 57.7404 45.7691 58.2027C48.0464 58.665 50.4096 58.4422 52.5605 57.5625C54.7113 56.6828 56.5532 55.1856 57.8538 53.2599C59.1544 51.3342 59.8553 49.0664 59.8681 46.7427C59.8874 45.1914 59.5974 43.6517 59.0151 42.2137C58.4328 40.7757 57.5698 39.4682 56.4765 38.3674C55.3832 37.2666 54.0816 36.3947 52.6476 35.8025C51.2136 35.2104 49.676 34.9099 48.1246 34.9186Z" fill="#C41E3D"/>
<path d="M21.9666 43.6791C20.6767 42.3301 19.5211 41.1423 18.3979 39.9169C18.261 39.7236 18.2051 39.4845 18.242 39.2505C18.7795 35.3486 19.3706 31.452 19.9242 27.5554C19.9834 27.1201 20.1715 26.975 20.5853 26.9804C21.5151 26.9804 22.4503 26.9804 23.3801 26.9804C23.4587 26.9651 23.5397 26.9677 23.6172 26.9878C23.6947 27.0079 23.7668 27.045 23.8281 27.0966C23.8894 27.1481 23.9384 27.2126 23.9715 27.2855C24.0047 27.3584 24.0211 27.4378 24.0197 27.5178C24.4353 30.4093 24.8509 33.2991 25.2666 36.187C25.4117 37.2189 25.5729 38.2509 25.6912 39.2828C25.7213 39.5163 25.6618 39.7525 25.5245 39.9438C24.412 41.1477 23.2726 42.2979 21.9666 43.6791Z" fill="#EF0050"/>
<path d="M18.9246 23.0676C20.9377 22.6802 23.0062 22.6802 25.0193 23.0676C24.713 23.8201 24.4819 24.4973 24.154 25.1368C24.0842 25.282 23.7832 25.3787 23.5843 25.3841C22.5094 25.3841 21.4076 25.4164 20.3166 25.3841C20.1939 25.366 20.0766 25.3215 19.9727 25.2538C19.8688 25.1861 19.7807 25.0967 19.7146 24.9918C19.4298 24.4113 19.2417 23.8093 18.9246 23.0676Z" fill="#EF0050"/>
<path d="M48.0978 36.5309C50.1121 36.5299 52.0814 37.1272 53.7558 38.247C55.4303 39.3669 56.7344 40.9587 57.5027 42.8208C58.2711 44.6829 58.4691 46.7312 58.0717 48.706C57.6742 50.6808 56.6992 52.493 55.2703 53.9128C53.8414 55.3326 52.023 56.2961 50.0457 56.681C48.0685 57.0659 46.0215 56.8548 44.1643 56.0746C42.3072 55.2944 40.7236 53.9802 39.6145 52.2987C38.5053 50.6172 37.9206 48.6441 37.9344 46.6298C37.9444 43.9433 39.0204 41.3706 40.9261 39.477C42.8318 37.5834 45.4113 36.5238 48.0978 36.5309ZM43.7014 43.7812C43.0242 43.7812 42.3416 43.7812 41.6644 43.7812C41.4169 43.8353 41.1805 43.9317 40.9657 44.0661C41.0678 44.2988 41.2077 44.5131 41.3795 44.7003C42.3685 45.4527 43.3735 46.1944 44.4054 46.8931C44.5174 46.9422 44.618 47.0141 44.7007 47.1041C44.7835 47.1942 44.8465 47.3005 44.886 47.4162C44.9254 47.532 44.9403 47.6546 44.9297 47.7765C44.9192 47.8983 44.8834 48.0166 44.8246 48.1239C44.4054 49.1988 44.0668 50.3059 43.7497 51.4131C43.6907 51.7683 43.678 52.1296 43.7121 52.488C44.0382 52.3968 44.3536 52.2707 44.6527 52.1118C45.6416 51.4239 46.6198 50.7252 47.5657 49.962C47.638 49.8857 47.7251 49.825 47.8217 49.7835C47.9182 49.742 48.0222 49.7206 48.1273 49.7206C48.2324 49.7206 48.3364 49.742 48.433 49.7835C48.5296 49.825 48.6166 49.8857 48.689 49.962C49.6886 50.7413 50.7259 51.483 51.7632 52.2139C51.9903 52.3278 52.233 52.4075 52.4834 52.4504C52.555 52.1899 52.5769 51.9182 52.5479 51.6496C52.1824 50.4135 51.7901 49.1827 51.3601 47.9627C51.3138 47.8743 51.2855 47.7775 51.277 47.6781C51.2684 47.5786 51.2797 47.4785 51.3102 47.3834C51.3407 47.2884 51.3898 47.2003 51.4547 47.1245C51.5195 47.0486 51.5988 46.9864 51.688 46.9415C52.7342 46.2249 53.7643 45.4814 54.7784 44.711C54.8628 44.7084 54.9454 44.686 55.0195 44.6455C55.0936 44.6051 55.1571 44.5477 55.2049 44.4781C55.2528 44.4084 55.2835 44.3285 55.2946 44.2448C55.3058 44.1611 55.2971 44.076 55.2692 43.9963C55.2413 43.9166 55.195 43.8446 55.1341 43.7861C55.0732 43.7276 54.9993 43.6843 54.9185 43.6597C54.8377 43.6351 54.7523 43.6299 54.6691 43.6444C54.5859 43.659 54.5073 43.693 54.4398 43.7436C53.166 43.7113 51.8976 43.7113 50.6238 43.7436C50.4347 43.7701 50.2427 43.7222 50.0883 43.6099C49.9339 43.4976 49.8291 43.3297 49.7961 43.1416C49.4145 41.9055 49.0168 40.6747 48.5868 39.4601C48.5062 39.2236 48.2536 39.0409 48.0816 38.8366C47.9042 39.0176 47.7523 39.2219 47.6302 39.4439C47.211 40.6693 46.8025 41.8948 46.4316 43.1309C46.4199 43.2253 46.3892 43.3164 46.3413 43.3986C46.2934 43.4808 46.2293 43.5524 46.153 43.6092C46.0766 43.666 45.9896 43.7066 45.8971 43.7288C45.8046 43.751 45.7085 43.7542 45.6147 43.7383C44.9751 43.7544 44.3409 43.7812 43.7014 43.7812Z" fill="#C41E3D"/>
</svg>
