<svg width="64" height="63" viewBox="0 0 64 63" fill="none" xmlns="http://www.w3.org/2000/svg">
<path d="M0 18.3654C0 17.2261 0 16.0868 0 14.9389C0.0199846 13.8355 0.456828 12.7806 1.22276 11.9861C1.98868 11.1915 3.02694 10.7163 4.12888 10.6559C13.0725 10.1586 21.6453 6.91611 28.6794 1.37022C30.0072 0.342281 31.3863 -0.343022 33.0567 0.179512C33.7579 0.394387 34.4119 0.740344 34.9841 1.19894C42.0802 6.79435 50.7195 10.0827 59.7402 10.6217C60.8292 10.647 61.8677 11.0862 62.6443 11.85C63.4209 12.6139 63.8772 13.6449 63.9205 14.7334C64.1076 18.1656 63.9642 21.6079 63.4922 25.0127C62.8615 30.3973 61.357 35.6429 59.0378 40.5431C54.7508 49.5483 47.2803 56.6465 38.0679 60.468C36.6973 61.059 35.2839 61.5473 33.8876 62.0956C32.6798 62.5584 31.3435 62.5584 30.1357 62.0956C23.465 59.9586 17.3987 56.2648 12.438 51.3194C7.93699 46.6634 4.58699 41.0194 2.65551 34.8382C0.959638 29.509 0.0647005 23.9575 0 18.3654ZM45.272 43.5756C45.3409 42.3573 45.3409 41.1361 45.272 39.9178C45.212 39.124 44.9237 38.3645 44.4419 37.7307C43.9601 37.097 43.3054 36.616 42.5566 36.3457C40.6777 35.5805 38.8103 34.8067 36.9543 34.0243C36.8016 33.9412 36.6272 33.9065 36.4543 33.9249C36.2814 33.9432 36.1182 34.0138 35.9864 34.1271C34.9413 34.9152 33.8619 35.6434 32.8169 36.4315C32.601 36.6338 32.3161 36.7464 32.0202 36.7464C31.7243 36.7464 31.4395 36.6338 31.2236 36.4315C30.2213 35.6691 29.1677 34.9581 28.1569 34.1957C28.0149 34.0645 27.836 33.9801 27.6445 33.9541C27.4529 33.928 27.258 33.9616 27.0861 34.0501C25.2273 34.8553 23.3684 35.6348 21.4839 36.3714C20.9305 36.5803 20.4284 36.9056 20.0116 37.3253C19.5948 37.745 19.2731 38.2494 19.0682 38.8043C18.4515 40.3548 18.8369 41.9823 18.7427 43.5927L45.272 43.5756ZM39.8925 21.7319C39.8908 20.1542 39.4221 18.6121 38.5455 17.3003C37.6689 15.9884 36.4236 14.9654 34.9665 14.3601C33.5095 13.7547 31.9059 13.5943 30.3578 13.8988C28.8096 14.2033 27.3863 14.9592 26.2671 16.0713C25.1478 17.1834 24.3828 18.6019 24.0684 20.1481C23.754 21.6942 23.9042 23.2988 24.5002 24.7597C25.0962 26.2206 26.1112 27.4723 27.4174 28.3573C28.7237 29.2423 30.2626 29.7208 31.8403 29.7327C32.896 29.7417 33.9429 29.5414 34.9206 29.1431C35.8982 28.7449 36.7872 28.1567 37.5361 27.4127C38.2849 26.6686 38.8788 25.7834 39.2832 24.8083C39.6877 23.8332 39.8948 22.7876 39.8925 21.7319Z" fill="#C41E3D"/>
<path d="M45.272 43.5756L18.717 43.5756C18.8112 41.9652 18.4258 40.3376 19.0425 38.7872C19.2474 38.2323 19.5691 37.7279 19.9859 37.3082C20.4027 36.8884 20.9048 36.5631 21.4582 36.3543C23.3427 35.6176 25.2016 34.8381 27.0604 34.0329C27.2323 33.9444 27.4272 33.911 27.6188 33.937C27.8103 33.9631 27.9892 34.0474 28.1312 34.1786C29.142 34.941 30.1956 35.6519 31.1979 36.4143C31.4138 36.6167 31.6986 36.7293 31.9945 36.7293C32.2904 36.7293 32.5753 36.6167 32.7912 36.4143C33.8362 35.6262 34.9156 34.8981 35.9607 34.11C36.0925 33.9966 36.2557 33.9261 36.4286 33.9077C36.6015 33.8894 36.7759 33.9241 36.9286 34.0072C38.7846 34.7953 40.652 35.5692 42.5309 36.3287C43.2797 36.5989 43.9344 37.0798 44.4162 37.7136C44.898 38.3473 45.1863 39.1069 45.2463 39.9007C45.3244 41.1242 45.333 42.3511 45.272 43.5756Z" fill="#F6DBE4"/>
<path d="M39.8925 21.7319C39.9276 22.8029 39.7469 23.87 39.3613 24.8698C38.9756 25.8696 38.3929 26.7816 37.6477 27.5517C36.9025 28.3217 36.01 28.9339 35.0234 29.3521C34.0368 29.7703 32.9761 29.9858 31.9046 29.9858C30.833 29.9858 29.7724 29.7703 28.7858 29.3521C27.7991 28.9339 26.9067 28.3217 26.1615 27.5517C25.4163 26.7816 24.8335 25.8696 24.4479 24.8698C24.0622 23.87 23.8816 22.803 23.9167 21.732C23.9846 19.6587 24.8559 17.6931 26.3465 16.2505C27.8371 14.8079 29.8302 14.0014 31.9046 14.0014C33.9789 14.0014 35.972 14.8079 37.4627 16.2505C38.9533 17.6931 39.8246 19.6587 39.8925 21.7319Z" fill="#F6DBE4"/>
</svg>
