<svg width="48" height="63" viewBox="0 0 48 63" fill="none" xmlns="http://www.w3.org/2000/svg">
<path d="M39.7169 36.1673C43.0335 38.5495 45.1274 41.6134 45.1724 45.7805C45.2261 51.0558 45.188 56.3311 45.188 61.6063C45.188 61.7323 45.1638 61.8566 45.1482 62.0103H37.7269V61.2576C37.7269 57.1665 37.7269 53.0754 37.7269 48.9843C37.7269 48.7496 37.7789 48.4389 37.6542 48.2939C37.4256 48.0315 37.0757 47.6983 36.7882 47.7104C36.5007 47.7225 36.1907 48.0902 35.9708 48.3646C35.8634 48.501 35.9309 48.7806 35.9309 48.9947C35.9309 53.0858 35.9309 57.1769 35.9309 61.268V62.0016H12.0773V61.3405C12.0773 57.2275 12.0773 53.1146 12.0773 49.0016C12.0883 48.8082 12.0837 48.6142 12.0634 48.4216C11.9855 47.9642 11.7171 47.688 11.2339 47.6673C11.0263 47.6423 10.8171 47.6982 10.6499 47.8233C10.4827 47.9484 10.3705 48.1331 10.3367 48.3387C10.2942 48.571 10.2785 48.8073 10.29 49.043C10.29 53.0915 10.29 57.1395 10.29 61.1869V61.9965H2.84273V61.211C2.84273 56.3449 2.95184 51.4753 2.81502 46.6125C2.64183 40.3551 6.94736 36.3813 10.929 34.7725C12.8533 33.9911 14.9129 33.5941 16.9907 33.6039C21.679 33.6125 26.3673 33.5918 31.0539 33.6177C32.1433 33.6177 33.2309 33.7679 34.3185 33.8473L34.3722 34.0544C34.1551 34.2395 33.9235 34.4069 33.6795 34.555C32.2645 35.28 30.8495 36.0068 29.4103 36.6817C29.2682 36.7242 29.1186 36.7358 28.9717 36.7159C28.8247 36.6959 28.6837 36.6448 28.5582 36.566C27.7912 36.0317 26.8821 35.7367 25.9465 35.7185C24.0414 35.6995 22.1362 35.6822 20.245 35.7185C17.971 35.7634 16.1179 37.4033 15.8563 39.5317C15.7131 40.599 15.967 41.6816 16.5701 42.575C17.1732 43.4684 18.0837 44.1107 19.1296 44.3806C19.3548 44.4481 19.5875 44.4875 19.8224 44.4979C21.9821 44.5083 24.1522 44.5653 26.2998 44.4979C27.8585 44.4427 28.9998 43.5865 29.8069 42.266C29.9397 42.0333 30.1462 41.8511 30.394 41.7481C33.7907 40.6997 36.8908 38.8662 39.4415 36.3969C39.5125 36.3244 39.5974 36.264 39.7169 36.1673Z" fill="#C41E3D"/>
<path d="M41.8783 25.5425H40.6314V15.6686L41.8437 15.6134C40.2729 9.17638 33.676 2.17318 24.2007 2.06443C14.8969 1.95913 7.89818 8.67925 6.14029 15.6289H7.37514V25.5252C6.71355 25.5252 6.05716 25.5252 5.39904 25.5252C4.74091 25.5252 4.05853 25.5477 3.39174 25.4976C2.48891 25.4294 1.64366 25.0295 1.01996 24.3753C0.396255 23.7211 0.0385549 22.8593 0.0162432 21.9572C-0.0062717 21.0544 -0.00453979 20.1481 0.0162432 19.2453C0.0526134 17.3465 1.53167 15.7584 3.40907 15.66C3.86976 15.6376 4.01697 15.4701 4.1434 15.0645C6.52651 7.40876 11.601 2.46319 19.405 0.564368C29.9697 -2.00595 40.8305 4.45005 43.825 14.9108C43.9636 15.3942 44.1108 15.6376 44.691 15.6704C46.4437 15.767 47.9054 17.3258 47.9816 19.0882C48.018 20.0342 48.0076 20.9871 47.9816 21.9296C47.9671 22.8319 47.6154 23.6965 46.9953 24.3541C46.3753 25.0117 45.5313 25.4152 44.6286 25.4855C44.1645 25.5235 43.9809 25.6806 43.8441 26.119C41.5597 33.4951 36.6809 38.2594 29.2665 40.469C29.1376 40.5177 29.0195 40.5912 28.919 40.6854C28.8186 40.7796 28.7378 40.8926 28.6812 41.0179C28.2049 42.2262 27.2281 42.9858 25.9101 43.0048C24.005 43.0341 22.0999 43.0445 20.2069 43.0048C19.8219 43.0057 19.4407 42.9292 19.086 42.7799C18.7314 42.6306 18.4106 42.4115 18.1428 42.1358C17.875 41.8601 17.6658 41.5333 17.5277 41.1752C17.3896 40.817 17.3253 40.4347 17.3389 40.0512C17.3752 38.4614 18.6257 37.2531 20.2831 37.2393C22.1189 37.2237 23.9548 37.2393 25.7923 37.2393C26.2254 37.2351 26.6545 37.3215 27.0519 37.4931C27.4493 37.6647 27.8061 37.9175 28.0992 38.2353C28.1916 38.3206 28.3011 38.3853 28.4206 38.4249C28.5401 38.4645 28.6668 38.4781 28.792 38.4649C34.8035 37.0545 40.4045 31.5359 41.8783 25.5425Z" fill="#EF0050"/>
<path d="M24.0217 10.1016C26.6325 10.1098 29.1332 11.1514 30.9735 12.9973C32.8138 14.8432 33.843 17.3421 33.8347 19.9444C33.8264 22.5466 32.7814 25.039 30.9294 26.8732C29.0774 28.7074 26.5702 29.7333 23.9593 29.725C18.5904 29.706 14.1602 25.2783 14.1602 19.9098C14.1684 17.3075 15.2107 14.8143 17.0589 12.9761C18.9071 11.1379 21.4107 10.1043 24.0217 10.1016Z" fill="#C41E3D"/>
</svg>
