<svg width="42" height="72" viewBox="0 0 42 72" fill="none" xmlns="http://www.w3.org/2000/svg">
<path d="M22.1112 0.801514C23.5244 1.08074 24.9605 1.2517 26.3395 1.6563C30.2995 2.8165 33.8164 5.14646 36.4289 8.34063C39.0414 11.5348 40.6275 15.444 40.9791 19.5555C41.0247 20.0798 41.0646 20.604 41.0703 21.1283C41.1011 21.4113 41.0729 21.6976 40.9874 21.9692C40.9018 22.2407 40.7609 22.4915 40.5734 22.7058C40.3859 22.92 40.156 23.093 39.8983 23.2139C39.6405 23.3347 39.3604 23.4007 39.0758 23.4077C37.8506 23.4419 37.0015 22.5529 36.9502 21.2251C36.6767 14.6775 33.7021 9.75396 27.8895 6.72803C18.1507 1.65631 6.01846 7.86772 4.36588 18.7406C4.24051 19.5783 4.18353 20.4502 4.13794 21.2708C4.06386 22.57 3.22616 23.4305 2.02947 23.4077C1.74796 23.4015 1.47067 23.3381 1.21447 23.2213C0.958276 23.1045 0.728552 22.9367 0.539281 22.7282C0.35001 22.5198 0.205158 22.2749 0.113559 22.0087C0.0219594 21.7424 -0.014469 21.4604 0.00648445 21.1796C0.0487647 16.9724 1.38358 12.88 3.83002 9.45704C6.27646 6.03406 9.71622 3.446 13.683 2.04376C15.2645 1.59539 16.8679 1.22834 18.4869 0.943978L18.9428 0.830034L22.1112 0.801514Z" fill="#EF0050"/>
<path d="M15.5522 43.1703V21.7893C15.5522 19.5669 16.4753 17.8744 18.5268 16.9398C21.8548 15.424 25.4961 17.8573 25.5246 21.607C25.5531 25.7954 25.5246 29.9895 25.5246 34.1837V35.0214L33.9984 37.5003C34.9842 37.7909 35.9815 38.0701 36.9616 38.3607C39.5545 39.1813 41.1672 40.9251 41.3894 43.6376C41.5378 45.7251 41.5226 47.821 41.3438 49.906C41.2327 50.8353 40.9005 51.7243 40.3751 52.4988C38.8251 54.9036 37.1611 57.2343 35.5655 59.6106C35.4679 59.7732 35.326 59.9045 35.1565 59.9893C34.9869 60.0741 34.7967 60.1088 34.6081 60.0894C27.4128 60.0894 20.2174 60.0894 13.022 60.0894C12.8326 60.1091 12.6421 60.0633 12.4824 59.9596C12.3227 59.8559 12.2034 59.7006 12.1444 59.5195C9.59145 54.3224 7.0157 49.1424 4.44565 43.951C3.94953 42.9559 3.83418 41.8138 4.12131 40.7396C4.40844 39.6655 5.07825 38.7332 6.0047 38.1184C6.93115 37.5036 8.05036 37.2485 9.15172 37.4013C10.2531 37.554 11.2607 38.1039 11.9848 38.9476C13.0163 40.1443 14.0135 41.3752 15.0279 42.589C15.1589 42.7372 15.2957 42.8797 15.5522 43.1703Z" fill="#C41E3D"/>
<path d="M20.5441 8.13556C27.7129 8.22104 33.6508 14.0621 33.6508 21.1283C33.6508 22.4618 32.8188 23.4077 31.5936 23.4077C31.3121 23.4098 31.0332 23.354 30.7741 23.2439C30.5151 23.1338 30.2813 22.9717 30.0874 22.7677C29.8935 22.5636 29.7436 22.3219 29.6468 22.0576C29.5501 21.7932 29.5086 21.5118 29.525 21.2308C29.5028 19.0104 28.6598 16.8766 27.1583 15.2406C25.6568 13.6046 23.6031 12.582 21.3927 12.3697C19.1823 12.1574 16.9715 12.7705 15.1862 14.0909C13.4008 15.4113 12.1671 17.3456 11.7227 19.5213C11.6173 20.0607 11.5544 20.6075 11.5347 21.1568C11.472 22.5187 10.6628 23.3906 9.4433 23.3792C8.22381 23.3678 7.38611 22.4218 7.4032 21.0314C7.47557 18.0848 8.53474 15.2478 10.4111 12.9747C12.2874 10.7016 14.8723 9.124 17.7518 8.49457C18.675 8.34641 19.6152 8.26092 20.5441 8.13556Z" fill="#EF0050"/>
<path d="M13.569 64.1923H33.514C33.5864 65.7437 33.573 67.298 33.4741 68.848C33.3259 70.1758 31.9925 71.1274 30.6248 71.1673C25.952 71.1673 21.2773 71.1673 16.6007 71.1673C15.8109 71.163 15.0541 70.8501 14.4919 70.2953C13.9297 69.7406 13.6067 68.988 13.5918 68.1984C13.5463 66.8934 13.569 65.5713 13.569 64.1923Z" fill="#C41E3D"/>
</svg>
