<svg width="64" height="65" viewBox="0 0 64 65" fill="none" xmlns="http://www.w3.org/2000/svg">
<path d="M0 42.2527C0.103327 41.8333 0.184368 41.4058 0.309981 40.9945C1.47292 37.1775 4.00139 34.8719 7.93187 34.1182C8.05338 34.0966 8.1692 34.0504 8.27225 33.9825C5.92206 33.4901 4.07838 32.2968 2.87493 30.2141C1.96835 28.6714 1.6591 26.8497 2.00576 25.0943C2.66827 21.49 5.94435 18.8947 9.69249 19.0162C13.3393 19.1216 16.3662 21.9722 16.8423 25.7305C17.3184 29.4887 14.9054 32.6878 10.5941 33.9581C19.2432 34.88 24.4561 29.6306 25.9007 24.138C26.1755 22.9827 26.3296 21.8019 26.3606 20.6148C26.4089 19.3363 26.8864 18.1113 27.7159 17.1373C28.5455 16.1633 29.6788 15.497 30.9333 15.2458C32.1911 15.0003 33.4951 15.1924 34.6287 15.7902C35.7623 16.3879 36.6574 17.3554 37.1653 18.532C37.6496 19.6382 37.6718 20.7971 37.603 21.9762C36.9789 32.7142 29.7359 41.6469 19.3424 44.4489C18.8663 44.5765 18.7346 44.7548 18.7346 45.239C18.7529 50.6769 18.7346 56.1127 18.7549 61.5505C18.7549 62.6851 18.4327 63.5279 17.3812 64.0223H1.37567C0.771866 63.7366 0.285731 63.2504 0 62.6466V42.2527Z" fill="#C41E3D"/>
<path d="M46.6208 64.0041C45.5693 63.5077 45.239 62.6649 45.2451 61.5323C45.2755 56.0965 45.2451 50.6607 45.2654 45.2249C45.2654 44.7447 45.1377 44.5522 44.6576 44.4145C40.9135 43.4014 37.6536 41.5031 34.6814 38.928C37.2403 35.8963 39.1305 32.3588 40.2287 28.5467C43.6567 32.8682 48.116 34.4505 53.3431 33.9359C48.6691 32.3292 46.4709 29.1464 47.2529 25.0558C47.9458 21.4232 51.2563 18.844 55.0247 19C58.6554 19.15 61.7106 22.0836 62.0895 25.7994C62.4015 28.9093 60.5841 32.9654 55.5515 33.9804L56.6415 34.2215C58.7141 34.6756 60.5704 35.8214 61.9052 37.4707C63.24 39.12 63.9738 41.1744 63.9858 43.2961C64.0081 49.5018 63.9858 55.7095 64 61.9152C64 62.9526 63.4692 63.5624 62.6183 63.996L46.6208 64.0041Z" fill="#C41E3D"/>
<path d="M26.397 9.16774C26.3221 10.1058 26.0263 10.6893 25.3415 11.0296C24.6121 11.3923 23.8787 11.3336 23.3053 10.7886C21.9546 9.49866 20.6296 8.17364 19.3303 6.8135C19.0267 6.45833 18.8683 6.00172 18.8866 5.53485C18.905 5.06799 19.0988 4.62523 19.4293 4.29498C19.7598 3.96472 20.2027 3.77129 20.6696 3.7533C21.1365 3.73531 21.593 3.89407 21.9479 4.1979C23.3074 5.48645 24.6263 6.81958 25.9189 8.17701C26.1965 8.47484 26.2917 8.94285 26.397 9.16774Z" fill="#EF0050"/>
<path d="M39.6857 11.2728C38.7375 11.1857 38.1581 10.8676 37.8279 10.1909C37.4773 9.45546 37.5523 8.73014 38.0993 8.16488C39.3784 6.82366 40.6886 5.51281 42.0298 4.23237C42.381 3.90336 42.8462 3.72347 43.3274 3.73059C43.8086 3.7377 44.2683 3.93126 44.6096 4.2705C44.9509 4.60974 45.1473 5.06819 45.1574 5.54933C45.1675 6.03047 44.9905 6.49676 44.6636 6.85C43.3893 8.19527 42.0724 9.50001 40.7291 10.7764C40.4131 11.06 39.9349 11.1614 39.6857 11.2728Z" fill="#EF0050"/>
<path d="M33.8771 3.7441C33.8771 4.36811 33.8913 4.99009 33.8771 5.61411C33.8756 5.85968 33.8258 6.10258 33.7305 6.32891C33.6352 6.55523 33.4962 6.76054 33.3215 6.93315C33.1468 7.10576 32.9399 7.24229 32.7124 7.33492C32.485 7.42754 32.2415 7.47446 31.9959 7.47299C31.7504 7.47153 31.5075 7.42171 31.2812 7.32638C31.0548 7.23105 30.8495 7.09208 30.6769 6.9174C30.5043 6.74271 30.3678 6.53574 30.2752 6.3083C30.1825 6.08086 30.1356 5.8374 30.1371 5.59183C30.1195 4.36676 30.1195 3.14101 30.1371 1.91459C30.1319 1.66449 30.1769 1.41588 30.2692 1.1834C30.3616 0.950916 30.4995 0.739269 30.6749 0.560877C30.8503 0.382485 31.0595 0.240961 31.2904 0.144642C31.5213 0.0483234 31.7691 -0.000851973 32.0192 1.11685e-05C33.0626 1.11685e-05 33.8589 0.828666 33.8812 1.9369C33.8872 2.53863 33.8771 3.14237 33.8771 3.7441Z" fill="#EF0050"/>
</svg>
