<svg width="71" height="55" viewBox="0 0 71 55" fill="none" xmlns="http://www.w3.org/2000/svg">
<path d="M70.4008 25.1684C70.3439 25.2603 70.2759 25.3521 70.2264 25.4402C69.7433 26.3732 68.8214 26.8489 67.9123 26.634C66.9224 26.3989 66.2925 25.6037 66.2815 24.533C66.2686 23.5357 66.2815 22.5367 66.2815 21.3962C65.9858 21.6753 65.7874 21.8516 65.602 22.0371L44.1218 43.5118C42.7224 44.9112 41.7233 44.9131 40.3293 43.5118C38.6948 41.8754 37.064 40.2372 35.3707 38.5531C35.1687 38.7368 34.9869 38.9021 34.8197 39.0729C30.1696 43.7193 25.5085 48.3529 20.8878 53.0305C20.5251 53.421 20.0818 53.7279 19.5887 53.93C19.0955 54.132 18.5643 54.2243 18.0319 54.2004C12.7648 54.1563 7.49572 54.1876 2.22853 54.1784C0.555446 54.1784 -0.474851 52.6265 0.243235 51.2105C0.672985 50.3639 1.40577 50.0499 2.33505 50.0517C7.25881 50.0627 12.1826 50.0517 17.1082 50.0737C17.3981 50.0849 17.6869 50.0315 17.9536 49.9175C18.2204 49.8035 18.4586 49.6317 18.6509 49.4144C23.6095 44.43 28.5786 39.4555 33.558 34.4907C34.8179 33.2327 35.8831 33.2382 37.1558 34.5109C38.8234 36.1748 40.4891 37.8442 42.0924 39.4494L63.0951 18.4375C62.2135 18.4375 61.2255 18.4375 60.2374 18.4375C59.4459 18.4375 58.8031 18.151 58.3678 17.4862C58.167 17.1837 58.0508 16.8329 58.0313 16.4703C58.0119 16.1077 58.0899 15.7465 58.2573 15.4243C58.4247 15.1021 58.6754 14.8305 58.9832 14.638C59.2911 14.4454 59.6449 14.3388 60.0079 14.3292C62.8012 14.2796 65.5964 14.3053 68.3898 14.3292C69.4109 14.3292 69.9729 15.0087 70.4008 15.8333V25.1684Z" fill="#EF0050"/>
<path d="M0.0155085 45.8974V42.4962C0.0155085 39.9525 -0.0193857 37.4089 0.0155085 34.8672C0.0889701 30.7845 1.78042 27.499 5.00722 24.9958C5.37452 24.7056 5.65184 24.6836 6.08159 24.9278C10.2726 27.297 14.4874 27.297 18.6821 24.9278C19.1082 24.6872 19.3763 24.6964 19.7546 24.9903C22.9153 27.4439 24.5902 30.6597 24.7408 34.6578C24.7757 35.5761 24.9832 36.5898 24.6655 37.3777C24.3478 38.1656 23.4754 38.7294 22.829 39.3759C20.7757 41.4389 18.7157 43.494 16.649 45.5411C16.4301 45.7552 16.1426 45.8853 15.8373 45.9084C10.6821 45.9305 5.52696 45.925 0.371797 45.9231C0.294663 45.925 0.204672 45.9121 0.0155085 45.8974Z" fill="#C41E3D"/>
<path d="M33.0107 8.80487C33.0118 7.17453 33.4961 5.58109 34.4023 4.22581C35.3085 2.87054 36.5961 1.81423 38.1023 1.19033C39.6086 0.566423 41.2659 0.402921 42.865 0.720452C44.4641 1.03798 45.9333 1.8223 47.0869 2.97436C48.2405 4.12641 49.0268 5.59452 49.3464 7.19322C49.6661 8.79191 49.5048 10.4495 48.8829 11.9565C48.261 13.4636 47.2064 14.7526 45.8524 15.6606C44.4983 16.5686 42.9055 17.055 41.2752 17.0583C39.086 17.0558 36.9869 16.1859 35.4379 14.6389C33.8889 13.0919 33.0161 10.9941 33.0107 8.80487Z" fill="#C41E3D"/>
<path d="M12.3828 22.5569C10.7521 22.5572 9.15794 22.0742 7.8017 21.1689C6.44546 20.2635 5.38801 18.9765 4.76298 17.4704C4.13796 15.9643 3.97339 14.3067 4.2901 12.7071C4.6068 11.1075 5.39055 9.63767 6.54231 8.48334C7.69407 7.32901 9.16216 6.54198 10.761 6.22172C12.3599 5.90146 14.0179 6.06234 15.5254 6.68402C17.0329 7.30569 18.3223 8.36028 19.2306 9.71451C20.139 11.0687 20.6255 12.6618 20.6288 14.2925C20.624 16.4797 19.7542 18.5762 18.2094 20.1245C16.6645 21.6728 14.5699 22.5472 12.3828 22.5569Z" fill="#C41E3D"/>
<path d="M42.109 33.6808C41.3927 32.9462 40.6507 32.1711 39.8904 31.4163C37.1999 28.7442 33.4864 28.7515 30.7885 31.4329C30.1953 32.0224 29.6205 32.6303 28.952 33.3061C28.6324 28.8488 28.8418 24.6744 31.9804 21.2584C32.5957 20.5881 33.3248 20.0243 34.0006 19.409C34.2706 19.1611 34.4983 19.1629 34.8381 19.3576C39.1099 21.8112 43.3909 21.802 47.681 19.3815C47.7884 19.3251 47.9068 19.2928 48.0279 19.2868C48.1491 19.2807 48.2701 19.3011 48.3826 19.3466C49.7949 20.2079 51.4569 22.1455 52.1475 23.6331L42.109 33.6808Z" fill="#C41E3D"/>
</svg>
